<?xml version="1.0" encoding="utf-8"?>
<!-- Generator: Adobe Illustrator 24.1.1, SVG Export Plug-In . SVG Version: 6.00 Build 0)  -->
<svg version="1.1"
	 id="svg3336" inkscape:version="0.91 r13725" sodipodi:docname="logoxuntaneg.svg" xmlns:cc="http://creativecommons.org/ns#" xmlns:dc="http://purl.org/dc/elements/1.1/" xmlns:inkscape="http://www.inkscape.org/namespaces/inkscape" xmlns:rdf="http://www.w3.org/1999/02/22-rdf-syntax-ns#" xmlns:sodipodi="http://sodipodi.sourceforge.net/DTD/sodipodi-0.dtd" xmlns:svg="http://www.w3.org/2000/svg"
	 xmlns="http://www.w3.org/2000/svg" xmlns:xlink="http://www.w3.org/1999/xlink" x="0px" y="0px" viewBox="0 0 102 32.5"
	 style="enable-background:new 0 0 102 32.5;" xml:space="preserve">
<style type="text/css">
	.st0{fill:#FFFFFF;}
	.st1{fill:#009EE0;}
</style>
<sodipodi:namedview  bordercolor="#666666" borderopacity="1" fit-margin-bottom="0" fit-margin-left="0" fit-margin-right="0" fit-margin-top="0" gridtolerance="10" guidetolerance="10" id="namedview3396" inkscape:current-layer="svg3336" inkscape:cx="71.2173" inkscape:cy="27.067002" inkscape:pageopacity="0" inkscape:pageshadow="2" inkscape:window-height="988" inkscape:window-maximized="1" inkscape:window-width="1680" inkscape:window-x="-8" inkscape:window-y="-8" inkscape:zoom="8.8888889" objecttolerance="10" pagecolor="#ffffff" showgrid="false">
	</sodipodi:namedview>
<path id="path3340" inkscape:connector-curvature="0" class="st0" d="M65.1,4.8c-0.3,0-0.6,0-1,0h-1v5.5c0,0.5,0,1,0.1,1.5
	c0.1,0.5,0.2,0.9,0.4,1.4h-2.4c0.2-0.5,0.3-0.9,0.4-1.5c0.1-0.5,0.1-1,0.1-1.5V4.7h-1c-0.4,0-0.7,0-1,0c-0.4,0-0.8,0.2-1.2,0.4V3.4
	h7.9v1.7C65.9,5,65.5,4.8,65.1,4.8L65.1,4.8z"/>
<path id="path3342" inkscape:connector-curvature="0" class="st0" d="M57,6.3v5.1c0,0.2,0,0.5,0,0.8c0,0.4,0.1,0.6,0.2,0.9h-1.6
	c-0.2-0.4-0.5-0.8-0.8-1.2l-4.4-6.1v4.3c0,0.5,0,1,0.1,1.5c0.1,0.5,0.2,0.9,0.4,1.4h-2.4c0.2-0.5,0.3-0.9,0.4-1.5
	c0.1-0.5,0.1-1,0.1-1.5V5.1c0-0.2,0-0.5,0-0.8C49,4,49,3.7,48.8,3.4h1.7c0.2,0.4,0.5,0.8,0.8,1.2l4.3,6V6.3c0-0.5,0-1-0.1-1.5
	c-0.1-0.5-0.2-0.9-0.4-1.4h2.4c-0.2,0.5-0.3,0.9-0.4,1.5C57,5.4,57,5.8,57,6.3C57,6.3,57,6.3,57,6.3z"/>
<path id="path3344" inkscape:connector-curvature="0" class="st0" d="M39.9,6.3c0-0.5,0-1-0.1-1.5c-0.1-0.5-0.2-0.9-0.4-1.4h2.4
	c-0.2,0.5-0.3,0.9-0.4,1.5c-0.1,0.5-0.1,1-0.1,1.5v0.9v2.4c0,1.2,1,2.2,2.2,2.2c1.2,0,2.2-1,2.2-2.2V7.2l0-0.9c0-0.5,0-1-0.1-1.5
	c-0.1-0.5-0.2-0.9-0.4-1.4h2.4c-0.2,0.5-0.3,0.9-0.4,1.5c-0.1,0.5-0.1,1-0.1,1.5v0.9v2.4c0,2-1.6,3.6-3.6,3.6c-2,0-3.6-1.6-3.6-3.6
	V7.2L39.9,6.3C39.9,6.3,39.9,6.3,39.9,6.3z"/>
<path id="path3346" inkscape:connector-curvature="0" class="st0" d="M30.1,3.4h2.3c0,0.2,0.1,0.4,0.1,0.6c0.1,0.2,0.2,0.4,0.5,0.9
	c0.3,0.4,1.1,1.6,1.4,2l1.3-2c0.2-0.3,0.3-0.5,0.4-0.7c0.1-0.3,0.1-0.5,0.2-0.8h2.1c-0.3,0.4-0.6,0.8-0.9,1.2c0,0-1.8,2.7-2.2,3.4
	l2.6,3.8c0.5,0.6,1.1,1.2,1.1,1.2h-2.6c0.1-0.5,0.1-0.7-0.2-1.2c0,0-1.7-2.7-1.7-2.7l-1.2,1.8c-0.5,0.7-0.7,1.2-1,2.1l-2.2,0
	c0.8-0.8,1.4-1.7,2-2.7l1.6-2.3l-1.9-2.7C30.9,4.3,30.1,3.4,30.1,3.4C30.1,3.4,30.1,3.4,30.1,3.4z"/>
<path id="path3348" inkscape:connector-curvature="0" class="st0" d="M72.3,4.7c-0.2-0.1-0.6-0.1-1-0.1c-1,0-1.8,0.3-2.4,0.8
	c-0.6,0.5-0.9,1.2-1,2.2h4.4V4.7L72.3,4.7z M73.9,13.1L73.9,13.1l-1.9,0.1c0.1-0.3,0.2-0.6,0.2-0.9c0-0.3,0-0.6,0-0.8l0-2.5h-4.4
	v1.6v0.9c0,0.6,0.1,1.1,0.1,1.7h-2c0.2-0.5,0.3-0.9,0.4-1.5c0.1-0.5,0.1-1,0.1-1.5v-1V8.9V7.8c0-1.3,0.4-2.4,1.2-3.3
	c0.8-0.8,2-1.3,3.5-1.3c0.4,0,0.6,0,1,0.1c0.5,0,1,0.1,1.5,0.2l0,8c0,0.2,0,0.5,0,0.8C73.8,12.5,73.8,12.8,73.9,13.1
	C73.9,13.1,73.9,13.1,73.9,13.1z"/>
<path id="path3350" inkscape:connector-curvature="0" class="st0" d="M100.3,18c-0.2-0.1-0.6-0.1-1-0.1c-1,0-1.8,0.3-2.4,0.8
	c-0.6,0.5-0.9,1.2-1,2.2h4.4L100.3,18C100.3,18,100.3,18,100.3,18z M102,26.3L102,26.3l-1.9,0.1c0.1-0.3,0.2-0.6,0.2-0.9
	c0-0.3,0-0.6,0-0.8v-2.5h-4.4v1.6v0.9c0,0.6,0.1,1.1,0.1,1.7l-2,0c0.2-0.5,0.3-0.9,0.4-1.5c0.1-0.5,0.1-1,0.1-1.5v-1v-0.3v-1.1
	c0-1.3,0.4-2.4,1.2-3.3c0.8-0.8,2-1.3,3.5-1.3c0.4,0,0.6,0,1,0.1c0.5,0,1,0.1,1.5,0.2v8c0,0.2,0,0.5,0,0.8
	C101.8,25.8,101.9,26.1,102,26.3L102,26.3L102,26.3z"/>
<path id="path3352" inkscape:connector-curvature="0" class="st0" d="M92.3,19.6v3.9c0,0.5,0,1,0.1,1.5c0.1,0.5,0.2,0.9,0.4,1.4
	h-2.4c0.2-0.5,0.3-0.9,0.4-1.5c0.1-0.5,0.1-1,0.1-1.5v-3.9c0-0.5,0-1-0.1-1.5c-0.1-0.5-0.2-0.9-0.4-1.4h2.4
	c-0.2,0.5-0.3,0.9-0.4,1.5C92.3,18.6,92.3,19.1,92.3,19.6L92.3,19.6z"/>
<path id="path3354" inkscape:connector-curvature="0" class="st0" d="M78.4,19.6v3.9c0,0.5,0,1,0.1,1.5c0.1,0.5,0.2,0.9,0.4,1.4
	h-2.4c0.2-0.5,0.3-0.9,0.4-1.5c0.1-0.5,0.1-1,0.1-1.5v-3.9c0-0.5,0-1-0.1-1.5c-0.1-0.5-0.2-0.9-0.4-1.4h2.4
	c-0.2,0.5-0.3,0.9-0.4,1.5C78.5,18.6,78.4,19.1,78.4,19.6L78.4,19.6z"/>
<path id="path3356" inkscape:connector-curvature="0" class="st0" d="M71.5,19.6v5.4h1c0.5,0,1,0,1.5-0.1c0.5-0.1,0.9-0.2,1.5-0.4
	l0,1.9h-5.8c0.2-0.5,0.3-0.9,0.4-1.5c0.1-0.5,0.1-1,0.1-1.5v-3.9c0-0.5,0-1-0.1-1.5c-0.1-0.5-0.2-0.9-0.4-1.5H72
	c-0.2,0.5-0.3,0.9-0.4,1.5C71.5,18.6,71.5,19.1,71.5,19.6L71.5,19.6L71.5,19.6z"/>
<path id="path3358" inkscape:connector-curvature="0" class="st0" d="M66.3,18c-0.2-0.1-0.6-0.1-1-0.1c-1,0-1.8,0.3-2.4,0.8
	c-0.6,0.5-0.9,1.2-1,2.2h4.4L66.3,18C66.3,18,66.3,18,66.3,18z M68,26.3L68,26.3l-1.9,0.1c0.1-0.3,0.2-0.6,0.2-0.9
	c0-0.3,0-0.6,0-0.8v-2.5h-4.4v1.6v0.9c0,0.6,0.1,1.1,0.1,1.7h-2c0.2-0.5,0.3-0.9,0.4-1.5c0.1-0.5,0.1-1,0.1-1.5v-1v-0.3v-1.1
	c0-1.3,0.4-2.4,1.2-3.3c0.8-0.8,2-1.3,3.5-1.3c0.4,0,0.6,0,1,0.1c0.5,0,1,0.1,1.5,0.2v8c0,0.2,0,0.5,0,0.8
	C67.8,25.8,67.8,26.1,68,26.3L68,26.3L68,26.3z"/>
<path id="path3360" inkscape:connector-curvature="0" class="st0" d="M55,20.8c0.6,0.1,1.1,0.1,1.7,0.1h0.9h1.6v0.8
	c0,3.2-2.2,4.8-4.6,4.8c-2.7-0.1-4.9-2.3-4.9-5c0-3,2.7-5.4,5.8-5c1.2,0.2,2.3,0.8,3.1,1.7l-0.8,1.6c-0.7-1.2-1.7-1.9-3.1-1.9
	c-1.9,0-3.5,1.6-3.6,3.6c0,2,1.6,3.6,3.6,3.6c1.7,0,3-1.1,3.2-2.9l-0.2,0h-0.3c-0.4,0-0.7,0-1,0c-0.4,0-0.8,0.2-1.2,0.4L55,20.8
	L55,20.8L55,20.8z"/>
<path id="path3362" inkscape:connector-curvature="0" class="st0" d="M44.2,20.7v1.9c-0.3-0.1-0.6-0.2-0.9-0.2c-0.3,0-0.5,0-0.7,0
	h-1.8V25h2.4c0.3,0,0.6,0,0.9,0c0.4,0,0.8-0.2,1.2-0.4v1.8h-6.4c0.2-0.5,0.3-0.9,0.4-1.5c0.1-0.5,0.1-1,0.1-1.5v-3.9
	c0-0.5,0-1-0.1-1.5c-0.1-0.5-0.2-0.9-0.4-1.4h6.4v1.8c-0.4-0.2-0.8-0.3-1.2-0.4c-0.3,0-0.6,0-1,0h-2.3v2.9h1.7c0.2,0,0.5,0,0.8,0
	C43.8,20.9,44.2,20.7,44.2,20.7C44.2,20.7,44.2,20.7,44.2,20.7z"/>
<path id="path3364" inkscape:connector-curvature="0" class="st0" d="M32,25h1.1c1.8,0,3.3-1.6,3.3-3.5c0-1.9-1.5-3.5-3.3-3.5L32,18
	L32,25C32,25,32,25,32,25z M30.5,25c0.1-0.5,0.1-1,0.1-1.5v-3.9c0-0.5,0-1-0.1-1.5c-0.1-0.5-0.2-0.9-0.4-1.4h3
	c2.6,0,4.7,2.2,4.7,4.9c0,2.7-2.1,4.9-4.7,4.9l-0.1,0h-2.9C30.3,25.9,30.4,25.5,30.5,25C30.5,25,30.5,25,30.5,25z"/>
<path id="path3366" inkscape:connector-curvature="0" class="st0" d="M85,25.2c1.4,0,2.4-0.8,3.1-1.9l0.8,1.6
	c-0.8,0.9-1.9,1.5-3.1,1.7c-3.1,0.4-5.7-2-5.8-5c0-3,2.7-5.4,5.8-5c1.2,0.2,2.3,0.8,3.1,1.7l-0.8,1.6c-0.7-1.2-1.7-1.9-3.1-1.9
	c-1.9,0-3.5,1.6-3.6,3.6C81.5,23.6,83.1,25.2,85,25.2L85,25.2z"/>
<polygon id="polygon3368" class="st0" points="24.8,0 24.8,32.5 0,32.5 0,0 "/>
<polygon id="polygon3370" class="st1" points="24.1,0.7 24.1,31.9 0.7,31.9 0.7,0.7 "/>
<polygon id="polygon3372" class="st0" points="9.4,7.9 15.4,7.9 15.5,7.5 9.3,7.5 "/>
<path id="path3374" inkscape:connector-curvature="0" class="st0" d="M9.1,7h0.6L8.8,5.7C8.7,5.5,8.7,5.3,8.7,5.1
	c0-0.3,0.1-0.5,0.3-0.7c0.2-0.2,0.5-0.3,0.8-0.3c0.2,0,0.3,0,0.4,0C10,4.4,9.9,4.7,9.9,4.9c0,0.3,0.1,0.5,0.2,0.8L10.8,7h0.6
	l-0.9-1.6c-0.1-0.2-0.1-0.4-0.1-0.5c0-0.3,0.1-0.5,0.3-0.7c0.2-0.2,0.4-0.3,0.7-0.3c0.3,0,0.6,0.1,0.8,0.4V7h0.5V4.3
	c0.2-0.2,0.4-0.4,0.8-0.4c0.3,0,0.5,0.1,0.7,0.3c0.2,0.2,0.3,0.4,0.3,0.7c0,0.2,0,0.4-0.1,0.5L13.3,7h0.6l0.8-1.3
	c0.1-0.2,0.2-0.5,0.2-0.8c0-0.2,0-0.4-0.1-0.7c0.1,0,0.2,0,0.4,0c0.3,0,0.5,0.1,0.7,0.3c0.2,0.2,0.3,0.4,0.3,0.7
	c0,0.1-0.1,0.3-0.2,0.6L15,7h0.6l0.7-1c0.2-0.2,0.3-0.5,0.3-0.8c0-0.4-0.1-0.8-0.4-1c-0.3-0.3-0.7-0.4-1.1-0.4c-0.2,0-0.5,0-0.7,0.1
	c-0.3-0.3-0.6-0.4-1-0.4c-0.4,0-0.7,0.1-1,0.4c-0.3-0.2-0.6-0.4-1-0.4c-0.4,0-0.8,0.1-1,0.4c-0.2-0.1-0.5-0.1-0.7-0.1
	c-0.4,0-0.8,0.1-1.1,0.4c-0.3,0.3-0.4,0.6-0.4,1c0,0.4,0.1,0.6,0.3,0.8L9.1,7C9.1,7,9.1,7,9.1,7z"/>
<polygon id="polygon3376" class="st0" points="13,12.8 11.8,12.8 11.8,11.6 10.6,11.6 10.6,10.4 11.8,10.4 11.8,9.2 13,9.2 13,10.4 
	14.1,10.4 14.1,11.6 13,11.6 "/>
<path id="path3378" inkscape:connector-curvature="0" class="st0" d="M10.4,15.7c0-1.1,0.9-1.9,1.9-1.9s1.9,0.9,1.9,1.9
	s-0.9,1.9-1.9,1.9C11.3,17.6,10.4,16.8,10.4,15.7L10.4,15.7z"/>
<path id="path3380" inkscape:connector-curvature="0" class="st0" d="M8.5,18.4c0,0.9,0.3,1.8,0.9,2.5c0.6,0.7,1.3,1.2,2.2,1.3
	c0.1,0.3,0.1,0.5,0.1,0.7c0.1,1.1,0,2.1-0.4,3.1c-0.4,1-1,1.8-1.7,2.5c0,0,0,0,0,0.1c0,0.1,0,0.1,0.1,0.1h5.6c0.1,0,0.1,0,0.1-0.1
	c0-0.1,0-0.1,0-0.1c-0.8-0.7-1.4-1.5-1.8-2.5c-0.4-1-0.5-2-0.4-3.1c0-0.1,0-0.4,0.1-0.7c0.9-0.2,1.6-0.6,2.2-1.3
	c0.6-0.7,0.9-1.5,0.9-2.5v-0.1c0-0.1,0-0.1-0.1-0.1H8.6c-0.1,0-0.1,0-0.1,0.1L8.5,18.4L8.5,18.4L8.5,18.4z"/>
<polygon id="polygon3382" class="st0" points="19.8,26.4 18.6,26.4 18.6,25.3 17.4,25.3 17.4,24.1 18.6,24.1 18.6,22.9 19.8,22.9 
	19.8,24.1 20.9,24.1 20.9,25.3 19.8,25.3 "/>
<polygon id="polygon3384" class="st0" points="19.8,19.6 18.6,19.6 18.6,18.4 17.4,18.4 17.4,17.3 18.6,17.3 18.6,16.1 19.8,16.1 
	19.8,17.3 20.9,17.3 20.9,18.4 19.8,18.4 "/>
<polygon id="polygon3386" class="st0" points="19.8,12.8 18.6,12.8 18.6,11.6 17.4,11.6 17.4,10.4 18.6,10.4 18.6,9.2 19.8,9.2 
	19.8,10.4 20.9,10.4 20.9,11.6 19.8,11.6 "/>
<polygon id="polygon3388" class="st0" points="6.1,26.4 5,26.4 5,25.3 3.8,25.3 3.8,24.1 5,24.1 5,22.9 6.1,22.9 6.1,24.1 7.3,24.1 
	7.3,25.3 6.1,25.3 "/>
<polygon id="polygon3390" class="st0" points="6.1,19.6 5,19.6 5,18.4 3.8,18.4 3.8,17.3 5,17.3 5,16.1 6.1,16.1 6.1,17.3 7.3,17.3 
	7.3,18.4 6.1,18.4 "/>
<polygon id="polygon3392" class="st0" points="6.1,12.8 5,12.8 5,11.6 3.8,11.6 3.8,10.4 5,10.4 5,9.2 6.1,9.2 6.1,10.4 7.3,10.4 
	7.3,11.6 6.1,11.6 "/>
<polygon id="polygon3394" class="st0" points="12.2,2.6 11.9,2.6 11.9,2.9 12.2,2.9 12.2,3.2 12.6,3.2 12.6,2.9 12.9,2.9 12.9,2.6 
	12.6,2.6 12.6,2.2 12.2,2.2 "/>
</svg>
